<svg height="1024" node-id="1" sillyvg="true" template-height="1024" template-width="1024" version="1.1" viewBox="0 0 1024 1024" width="1024" xmlns="http://www.w3.org/2000/svg" xmlns:xlink="http://www.w3.org/1999/xlink"><defs node-id="64"><linearGradient gradientUnits="objectBoundingBox" id="linear-gradient" node-id="3" spreadMethod="pad" x1="0.925" x2="0.408" y1="0.988" y2="1"><stop offset="0" stop-color="#e0e9ef" stop-opacity="0"></stop><stop offset="1" stop-color="#e0e9ef"></stop></linearGradient><linearGradient gradientUnits="objectBoundingBox" id="linear-gradient-2" node-id="6" spreadMethod="pad" x1="0.925" x2="0.408" y1="0.988" y2="1"><stop offset="0" stop-color="#e0e8ef" stop-opacity="0"></stop><stop offset="1" stop-color="#e0e9ef"></stop></linearGradient><linearGradient gradientUnits="objectBoundingBox" id="linear-gradient-3" node-id="9" spreadMethod="pad" x1="0.92" x2="0.409" y1="0.988" y2="1"><stop offset="0" stop-color="#e0e9ef" stop-opacity="0"></stop><stop offset="1" stop-color="#e0e9ef"></stop></linearGradient><linearGradient gradientUnits="objectBoundingBox" id="linear-gradient-4" node-id="10" spreadMethod="pad" x1="0.5" x2="0.5" y1="0" y2="1"><stop offset="0" stop-color="#ebf3fe"></stop><stop offset="1" stop-color="#ebf3fe" stop-opacity="0"></stop></linearGradient><linearGradient gradientUnits="objectBoundingBox" id="linear-gradient-5" node-id="13" spreadMethod="pad" x1="1.446" x2="0.295" y1="0.67" y2="0.674"><stop offset="0" stop-color="#e0e9ef" stop-opacity="0"></stop><stop offset="1" stop-color="#e0e9ef"></stop></linearGradient><linearGradient gradientUnits="objectBoundingBox" id="linear-gradient-6" node-id="14" spreadMethod="pad" x1="0.49999997" x2="0.95899993" y1="0" y2="1.2899998"><stop offset="0" stop-color="#82cbff"></stop><stop offset="1" stop-color="#d6edff"></stop></linearGradient><linearGradient gradientUnits="objectBoundingBox" id="linear-gradient-7" node-id="17" spreadMethod="pad" x1="0.50005925" x2="0.50005925" y1="0" y2="1.0001185"><stop offset="0" stop-color="#5baafd"></stop><stop offset="1" stop-color="#aad2fe"></stop></linearGradient><linearGradient gradientUnits="objectBoundingBox" id="linear-gradient-8" node-id="20" spreadMethod="pad" x1="0.50005925" x2="0.59107006" y1="0.14901766" y2="0.5530655"><stop offset="0" stop-color="#afd5fe"></stop><stop offset="1" stop-color="#3798fc"></stop></linearGradient><linearGradient gradientUnits="objectBoundingBox" id="linear-gradient-9" node-id="23" spreadMethod="pad" x1="0.50005925" x2="0.50005925" y1="0" y2="1.0001185"><stop offset="0" stop-color="#4ba2fc"></stop><stop offset="1" stop-color="#f9fcff"></stop></linearGradient><linearGradient gradientUnits="objectBoundingBox" id="linear-gradient-10" node-id="26" spreadMethod="pad" x1="0.50005925" x2="0.47705653" y1="0.48505747" y2="0.5420642"><stop offset="0" stop-color="#ffffff"></stop><stop offset="1" stop-color="#f7f7f7"></stop></linearGradient><linearGradient gradientUnits="objectBoundingBox" id="linear-gradient-11" node-id="29" spreadMethod="pad" x1="0.50005925" x2="0.50005925" y1="0" y2="1.0001185"><stop offset="0" stop-color="#dbeaff"></stop><stop offset="1" stop-color="#fcfcfc" stop-opacity="0"></stop></linearGradient><linearGradient gradientUnits="objectBoundingBox" id="linear-gradient-12" node-id="32" spreadMethod="pad" x1="0.50005925" x2="0.50005925" y1="0" y2="1.0001185"><stop offset="0" stop-color="#94c7fd"></stop><stop offset="1" stop-color="#4aa1fc"></stop></linearGradient><linearGradient gradientUnits="objectBoundingBox" id="linear-gradient-13" node-id="35" spreadMethod="pad" x1="0.50005925" x2="0.50005925" y1="0" y2="1.0001185"><stop offset="0" stop-color="#9eccfd"></stop><stop offset="1" stop-color="#3798fc"></stop></linearGradient><clipPath id="clip-_404" node-id="38"><path d="M 0.00 0.00 L 1024.00 0.00 L 1024.00 1024.00 L 0.00 1024.00 Z" fill="#000000" fill-rule="nonzero" node-id="145" stroke="none" target-height="1024" target-width="1024" target-x="0" target-y="0"></path></clipPath></defs><g clip-path="url(#clip-_404)" id="_404" node-id="40"><path d="M 0.00 0.00 L 1024.00 0.00 L 1024.00 1024.00 L 0.00 1024.00 Z" fill="#ffffff" fill-rule="nonzero" node-id="150" stroke="none" target-height="1024" target-width="1024" target-x="0" target-y="0"></path><path d="M 0.00 0.00 L 1024.00 0.00 L 1024.00 1024.00 L 0.00 1024.00 Z" fill="#ffffff" fill-opacity="0" fill-rule="nonzero" group-id="1,2" id="矩形_211" node-id="43" stroke="none" target-height="1024" target-width="1024" target-x="0" target-y="0"></path><path d="M 275.02 730.26 L 275.95 733.41 L 276.69 736.37 L 277.06 738.78 L 276.91 741.22 L 276.39 743.58 L 275.51 745.83 L 274.28 747.94 L 272.24 750.36 L 269.84 752.29 L 267.05 753.77 L 263.52 753.96 L 260.19 754.14 L 256.66 754.14 L 227.74 754.51 L 227.74 785.43 L 228.01 799.22 L 228.66 811.71 L 229.59 824.48 L 202.89 824.48 L 203.45 817.26 L 203.82 805.70 L 204.00 786.17 L 204.00 757.85 L 202.46 759.03 L 200.74 759.90 L 198.90 760.44 L 196.96 760.62 L 195.03 760.48 L 193.22 759.99 L 191.49 759.14 L 190.00 757.99 L 188.73 756.64 L 187.69 755.07 L 166.73 753.96 L 163.83 753.04 L 161.14 751.68 L 158.69 749.91 L 156.53 747.76 L 154.74 745.27 L 153.45 742.54 L 152.68 739.61 L 152.46 736.56 L 152.64 734.52 L 153.20 732.67 L 157.83 721.94 L 158.25 719.29 L 159.02 716.77 L 160.15 714.35 L 161.55 712.12 L 163.19 710.08 L 165.07 708.24 L 194.18 654.37 L 194.36 654.37 L 196.76 650.38 L 199.54 646.68 L 202.71 643.26 L 204.49 641.81 L 206.40 640.63 L 208.45 639.71 L 210.61 639.06 L 212.83 638.70 L 215.13 638.64 L 218.30 638.83 L 221.37 639.49 L 224.32 640.60 L 227.09 642.15 L 229.54 644.03 L 231.69 646.22 L 233.51 648.69 L 234.97 651.41 L 258.33 697.13 L 261.36 698.46 L 264.12 700.22 L 266.59 702.37 L 268.71 704.90 L 270.51 707.82 L 271.80 710.96 L 272.57 714.26 L 272.79 717.68 L 272.54 720.86 L 271.87 723.97 L 275.02 730.26 Z" fill="url(#linear-gradient)" fill-rule="nonzero" group-id="1,3" id="路径" node-id="45" stroke="none" target-height="185.83997" target-width="124.59999" target-x="152.46" target-y="638.64"></path><path d="M 929.71 730.26 L 930.63 733.41 L 931.38 736.37 L 931.75 738.78 L 931.60 741.22 L 931.08 743.58 L 930.20 745.83 L 928.97 747.94 L 926.93 750.36 L 924.53 752.29 L 921.74 753.77 L 918.21 753.96 L 914.87 754.14 L 911.35 754.14 L 882.43 754.51 L 882.43 785.43 L 882.71 799.22 L 883.35 811.71 L 884.28 824.48 L 857.58 824.48 L 858.14 817.26 L 858.51 805.70 L 858.69 786.17 L 858.69 757.85 L 857.15 759.03 L 855.43 759.90 L 853.58 760.44 L 851.65 760.62 L 849.72 760.48 L 847.91 759.99 L 846.18 759.14 L 844.68 757.99 L 843.42 756.64 L 842.38 755.07 L 821.42 753.96 L 818.52 753.04 L 815.82 751.68 L 813.38 749.91 L 811.22 747.76 L 809.43 745.27 L 808.14 742.54 L 807.37 739.61 L 807.15 736.56 L 807.33 734.52 L 807.89 732.67 L 812.52 721.94 L 812.94 719.29 L 813.71 716.77 L 814.85 714.35 L 816.25 712.12 L 817.88 710.08 L 819.75 708.24 L 848.86 654.37 L 849.05 654.37 L 851.45 650.38 L 854.23 646.68 L 857.39 643.26 L 859.17 641.81 L 861.09 640.63 L 863.14 639.71 L 865.30 639.06 L 867.52 638.70 L 869.82 638.64 L 872.99 638.83 L 876.06 639.49 L 879.01 640.60 L 881.78 642.15 L 884.23 644.03 L 886.38 646.22 L 888.20 648.69 L 889.66 651.41 L 913.02 697.13 L 916.05 698.46 L 918.81 700.22 L 921.28 702.37 L 923.40 704.90 L 925.20 707.82 L 926.49 710.96 L 927.26 714.26 L 927.48 717.68 L 927.23 720.86 L 926.56 723.97 L 929.71 730.26 Z" fill="url(#linear-gradient-2)" fill-rule="nonzero" group-id="1,3,10" id="路径-2" node-id="46" stroke="none" target-height="185.83997" target-width="124.599976" target-x="807.15" target-y="638.64"></path><path d="M 852.02 750.61 L 852.74 753.07 L 853.32 755.40 L 853.61 757.28 L 853.38 759.84 L 852.67 762.22 L 851.44 764.47 L 849.85 766.36 L 847.98 767.88 L 845.80 769.04 L 843.05 769.19 L 840.46 769.33 L 837.71 769.33 L 815.15 769.62 L 815.15 793.86 L 815.37 804.68 L 815.88 814.48 L 816.60 824.49 L 795.78 824.49 L 796.22 818.83 L 796.50 809.76 L 796.65 794.45 L 796.65 772.23 L 795.45 773.16 L 794.11 773.84 L 792.67 774.26 L 791.16 774.41 L 789.66 774.30 L 788.25 773.92 L 786.89 773.25 L 785.22 771.84 L 783.93 770.06 L 767.60 769.19 L 765.33 768.46 L 763.23 767.39 L 761.32 766.01 L 759.64 764.32 L 758.24 762.37 L 757.24 760.23 L 756.64 757.93 L 756.46 755.54 L 756.61 753.94 L 757.04 752.49 L 760.65 744.07 L 760.98 742.00 L 761.58 740.03 L 762.46 738.13 L 764.17 735.56 L 766.29 733.34 L 788.99 691.10 L 789.13 691.10 L 791.01 687.97 L 793.17 685.07 L 795.64 682.39 L 797.76 680.76 L 800.12 679.60 L 802.66 678.93 L 805.32 678.76 L 807.80 678.92 L 810.20 679.43 L 812.49 680.31 L 814.65 681.52 L 817.16 683.55 L 819.20 685.96 L 820.79 688.78 L 839.01 724.63 L 841.37 725.67 L 843.53 727.05 L 845.45 728.74 L 847.11 730.73 L 848.51 733.02 L 849.51 735.48 L 850.11 738.07 L 850.29 740.74 L 850.09 743.23 L 849.56 745.67 L 852.02 750.61 Z" fill="url(#linear-gradient-3)" fill-rule="nonzero" group-id="1,3,11" id="路径-3" node-id="47" stroke="none" target-height="145.72998" target-width="97.14996" target-x="756.46" target-y="678.76"></path><path d="M 495.64 775.91 L 528.13 776.14 L 559.60 776.78 L 590.10 777.83 L 620.62 779.31 L 649.78 781.14 L 677.63 783.31 L 705.49 785.92 L 731.64 788.81 L 756.16 791.96 L 780.65 795.58 L 803.09 799.40 L 823.59 803.37 L 835.69 803.64 L 847.31 804.24 L 858.48 805.14 L 869.22 806.35 L 880.11 807.93 L 890.31 809.76 L 899.85 811.81 L 908.77 814.09 L 917.85 816.79 L 926.02 819.65 L 933.36 822.62 L 939.92 825.71 L 946.52 829.36 L 952.04 833.02 L 956.60 836.70 L 960.33 840.38 L 963.05 843.77 L 965.08 847.12 L 966.50 850.46 L 967.34 853.81 L 967.65 857.22 L 967.35 860.60 L 966.52 863.92 L 965.13 867.23 L 963.13 870.55 L 960.46 873.91 L 956.80 877.57 L 952.31 881.21 L 946.89 884.85 L 940.41 888.48 L 933.96 891.55 L 926.74 894.52 L 918.70 897.37 L 909.77 900.08 L 900.99 902.35 L 891.59 904.42 L 881.55 906.27 L 870.82 907.88 L 857.25 911.66 L 842.19 915.41 L 825.50 919.12 L 825.99 922.47 L 826.15 925.86 L 825.88 930.17 L 825.10 934.44 L 823.81 938.68 L 821.98 942.91 L 819.57 947.16 L 816.12 952.03 L 811.90 956.90 L 806.83 961.80 L 800.82 966.72 L 794.67 971.10 L 787.76 975.43 L 780.03 979.73 L 771.41 983.98 L 762.84 987.75 L 753.58 991.41 L 743.59 994.95 L 732.81 998.37 L 718.49 1002.35 L 703.08 1006.01 L 686.54 1009.34 L 669.94 1012.10 L 652.46 1014.44 L 634.09 1016.33 L 615.69 1017.67 L 596.65 1018.49 L 576.95 1018.78 L 561.37 1018.60 L 546.21 1018.08 L 531.45 1017.24 L 517.09 1016.08 L 502.59 1014.57 L 488.66 1012.78 L 475.29 1010.73 L 462.47 1008.42 L 449.49 1005.72 L 437.24 1002.81 L 425.69 999.71 L 414.82 996.43 L 403.81 992.69 L 393.69 988.83 L 384.39 984.85 L 375.88 980.76 L 367.33 976.13 L 359.78 971.47 L 353.16 966.78 L 347.37 962.06 L 342.86 957.81 L 339.02 953.58 L 335.80 949.37 L 333.15 945.18 L 331.03 940.98 L 303.43 938.67 L 277.36 936.09 L 252.77 933.24 L 228.18 929.95 L 205.45 926.47 L 184.47 922.80 L 163.54 918.64 L 144.78 914.38 L 128.04 910.04 L 115.32 906.32 L 104.05 902.62 L 94.11 898.95 L 85.38 895.32 L 78.07 891.88 L 71.82 888.52 L 66.52 885.26 L 62.08 882.08 L 58.39 879.00 L 55.30 875.89 L 52.92 872.88 L 51.16 869.96 L 49.95 867.10 L 49.23 864.27 L 48.97 861.44 L 49.22 858.66 L 49.91 855.88 L 51.09 853.07 L 52.79 850.21 L 55.08 847.26 L 58.05 844.21 L 61.61 841.17 L 65.89 838.05 L 71.00 834.84 L 77.03 831.54 L 84.08 828.15 L 92.49 824.57 L 102.09 820.95 L 112.97 817.30 L 125.26 813.62 L 141.43 809.33 L 159.56 805.10 L 179.80 800.96 L 200.09 797.31 L 222.09 793.82 L 245.91 790.52 L 269.73 787.64 L 295.00 785.01 L 321.78 782.63 L 348.55 780.66 L 376.48 778.99 L 405.62 777.65 L 434.74 776.70 L 464.74 776.11 L 495.64 775.91 Z" fill="url(#linear-gradient-4)" fill-rule="nonzero" group-id="1,4" id="形状结合" node-id="48" stroke="none" target-height="242.87006" target-width="918.68005" target-x="48.97" target-y="775.91"></path><path d="M 699.44 880.01 L 699.19 880.74 L 698.36 881.56 L 696.56 882.53 L 693.29 883.66 L 686.54 885.24 L 675.94 886.94 L 664.11 888.35 L 649.03 889.72 L 632.93 890.85 L 614.19 891.87 L 594.65 892.65 L 573.08 893.25 L 550.91 893.61 L 527.32 893.74 L 503.73 893.61 L 481.56 893.25 L 459.99 892.65 L 440.45 891.87 L 421.71 890.85 L 405.61 889.72 L 390.54 888.35 L 378.70 886.94 L 368.10 885.24 L 361.35 883.66 L 358.08 882.53 L 356.28 881.56 L 355.45 880.74 L 355.20 880.01 L 355.45 879.29 L 356.28 878.47 L 358.08 877.50 L 361.35 876.36 L 368.10 874.79 L 378.70 873.09 L 390.54 871.68 L 405.61 870.31 L 421.71 869.17 L 440.45 868.16 L 459.99 867.38 L 481.56 866.78 L 503.73 866.41 L 527.32 866.29 L 550.91 866.41 L 573.08 866.78 L 594.65 867.38 L 614.19 868.16 L 632.93 869.17 L 649.03 870.31 L 664.11 871.68 L 675.94 873.09 L 686.54 874.79 L 693.29 876.36 L 696.56 877.50 L 698.36 878.47 L 699.19 879.29 L 699.44 880.01 Z" fill="#d1dbe2" fill-opacity="0" fill-rule="nonzero" group-id="1,5" id="椭圆形" node-id="49" stroke="none" target-height="27.450012" target-width="344.24" target-x="355.2" target-y="866.29"></path><path d="M 835.40 242.26 L 835.15 245.37 L 834.46 248.29 L 833.33 251.08 L 831.81 253.67 L 829.93 256.06 L 827.68 258.25 L 825.16 260.14 L 822.35 261.74 L 819.24 263.07 L 815.99 264.02 L 812.53 264.61 L 808.83 264.83 L 726.63 264.83 L 721.70 264.16 L 717.17 262.94 L 712.99 261.17 L 710.02 259.45 L 707.42 257.51 L 705.15 255.34 L 703.19 252.94 L 701.59 250.30 L 700.43 247.49 L 699.71 244.49 L 699.44 241.25 L 699.65 238.43 L 700.23 235.74 L 701.18 233.16 L 702.46 230.71 L 704.04 228.42 L 705.94 226.28 L 708.07 224.37 L 710.43 222.67 L 713.04 221.19 L 712.20 218.99 L 711.80 216.68 L 712.10 213.87 L 712.92 211.23 L 714.27 208.73 L 716.06 206.49 L 718.24 204.55 L 720.86 202.89 L 723.72 201.68 L 726.86 200.92 L 730.34 200.63 L 733.30 200.89 L 736.16 201.57 L 738.90 202.65 L 741.46 204.14 L 744.15 200.44 L 747.26 197.04 L 750.80 193.94 L 754.67 191.25 L 758.87 188.96 L 763.44 187.09 L 768.19 185.72 L 773.21 184.88 L 778.54 184.58 L 784.09 184.91 L 789.30 185.83 L 794.21 187.31 L 798.91 189.35 L 803.15 191.82 L 806.97 194.74 L 810.40 198.10 L 813.25 201.76 L 815.57 205.74 L 816.92 208.92 L 817.90 212.20 L 818.49 215.62 L 818.71 219.19 L 818.71 221.19 L 821.94 222.55 L 824.84 224.19 L 827.44 226.10 L 829.77 228.31 L 831.71 230.72 L 833.27 233.34 L 834.44 236.15 L 835.15 239.11 L 835.40 242.26 Z" fill="url(#linear-gradient-5)" fill-rule="nonzero" group-id="1,6" id="路径-4" node-id="50" stroke="none" target-height="80.249985" target-width="135.96002" target-x="699.44" target-y="184.58"></path><path d="M 353.19 304.52 L 333.80 328.87 L 277.96 253.44 L 390.62 258.40 L 373.78 281.02 L 293.02 260.34 L 365.73 291.76 L 378.67 314.70 L 353.19 304.52 Z" fill="url(#linear-gradient-6)" fill-rule="nonzero" group-id="1,7" id="路径-5" node-id="51" stroke="none" target-height="75.42999" target-width="112.66" target-x="277.96" target-y="253.44"></path><path d="M 397.44 303.06 L 414.46 300.35 L 430.48 298.39 L 445.56 297.15 L 459.73 296.57 L 473.07 296.61 L 485.60 297.25 L 497.39 298.43 L 508.47 300.14 L 518.88 302.35 L 528.68 305.02 L 537.90 308.16 L 546.57 311.73 L 554.73 315.74 L 562.40 320.18 L 569.63 325.04 L 576.42 330.35 L 577.21 331.01 L 578.79 332.35 L 580.34 333.68 L 581.89 335.02 L 583.44 336.36 L 584.21 337.03 L 585.75 338.39 L 588.07 340.46 L 589.62 341.86 L 591.19 343.29 L 593.58 345.49 L 596.02 347.75 L 598.53 350.11 L 600.25 351.73 L 602.89 354.25 L 618.23 369.01 L 620.17 370.86 L 622.60 373.16 L 624.34 374.78 L 626.00 376.33 L 627.61 377.80 L 628.67 378.76 L 630.22 380.16 L 637.54 386.46 L 644.35 391.85 L 651.24 396.74 L 657.99 400.95 L 664.93 404.69 L 672.11 407.97 L 678.34 410.38 L 684.95 412.53 L 691.97 414.39 L 699.43 415.96 L 706.80 417.15 L 714.76 418.07 L 723.34 418.71 L 732.58 419.04 L 733.79 419.05 L 744.97 419.47 L 756.04 420.40 L 767.01 421.87 L 777.89 423.85 L 788.70 426.37 L 799.38 429.39 L 809.86 432.92 L 820.17 436.94 L 830.32 441.48 L 840.30 446.52 L 847.12 450.40 L 853.49 454.34 L 854.86 455.24 L 856.22 456.14 L 859.52 458.42 L 860.80 459.34 L 862.06 460.26 L 863.30 461.18 L 865.71 463.02 L 866.88 463.95 L 872.38 468.57 L 873.41 469.50 L 877.25 473.16 L 878.14 474.07 L 882.09 478.42 L 885.18 482.43 L 887.73 486.48 L 889.38 490.06 L 889.52 490.43 L 888.48 490.80 L 887.17 487.80 L 885.20 484.41 L 882.80 481.05 L 879.74 477.40 L 878.94 476.52 L 876.82 474.29 L 875.92 473.39 L 871.56 469.32 L 870.52 468.41 L 864.37 463.38 L 863.17 462.46 L 861.95 461.55 L 860.72 460.64 L 859.46 459.74 L 857.53 458.38 L 856.21 457.48 L 854.88 456.58 L 853.53 455.69 L 852.16 454.80 L 850.77 453.92 L 849.36 453.04 L 847.93 452.16 L 846.49 451.30 L 842.05 448.74 L 840.54 447.91 L 839.77 447.49 L 829.95 442.53 L 819.98 438.06 L 809.84 434.08 L 799.53 430.60 L 789.03 427.59 L 778.40 425.09 L 767.70 423.09 L 756.91 421.61 L 746.02 420.64 L 735.02 420.18 L 733.77 420.16 L 724.26 419.86 L 715.44 419.24 L 707.26 418.32 L 699.70 417.13 L 692.05 415.54 L 684.84 413.65 L 678.06 411.46 L 671.68 408.99 L 664.44 405.68 L 657.45 401.91 L 650.65 397.66 L 643.71 392.74 L 636.85 387.32 L 629.48 380.98 L 628.45 380.05 L 626.87 378.62 L 625.25 377.14 L 624.15 376.12 L 622.44 374.52 L 621.25 373.41 L 619.41 371.66 L 614.31 366.76 L 604.88 357.68 L 602.14 355.05 L 599.49 352.54 L 597.78 350.92 L 595.27 348.57 L 592.84 346.31 L 591.24 344.84 L 589.66 343.40 L 588.88 342.69 L 586.55 340.59 L 585.01 339.22 L 583.48 337.86 L 581.94 336.52 L 580.39 335.18 L 578.85 333.85 L 577.28 332.52 L 575.70 331.19 L 569.03 325.98 L 561.93 321.18 L 554.39 316.81 L 546.38 312.85 L 537.86 309.32 L 528.81 306.21 L 519.19 303.55 L 508.96 301.35 L 498.08 299.63 L 486.51 298.42 L 474.21 297.75 L 461.13 297.65 L 447.22 298.16 L 432.44 299.31 L 416.73 301.15 L 400.04 303.73 L 397.64 304.15 L 397.44 303.06 Z" fill="none" group-id="1,8" id="路径-13" node-id="52" stroke="#dbe6ee" stroke-dasharray="4 6" stroke-linecap="butt" stroke-width="1" target-height="194.22998" target-width="492.08002" target-x="397.44" target-y="296.57"></path><path d="M 479.07 452.68 L 481.04 452.34 L 482.94 452.32 L 484.80 452.62 L 486.60 453.21 L 488.25 454.06 L 489.77 455.18 L 491.09 456.52 L 492.18 458.08 L 493.04 459.88 L 493.59 461.81 L 493.80 463.70 L 493.71 465.58 L 493.31 467.43 L 492.64 469.15 L 491.69 470.78 L 490.49 472.24 L 489.05 473.49 L 487.35 474.54 L 491.67 490.65 L 487.16 491.86 L 482.84 475.75 L 480.84 475.69 L 478.97 475.33 L 477.21 474.67 L 475.57 473.73 L 474.12 472.57 L 472.86 471.17 L 471.83 469.59 L 471.07 467.84 L 470.58 465.91 L 470.43 463.92 L 470.59 462.02 L 471.06 460.19 L 471.82 458.46 L 472.82 456.90 L 474.08 455.50 L 475.54 454.31 L 477.20 453.37 L 479.07 452.68 Z" fill="url(#linear-gradient-7)" fill-rule="nonzero" group-id="1,9,12" id="形状结合-2" node-id="54" stroke="none" target-height="39.539978" target-width="23.369995" target-x="470.43" target-y="452.32"></path><path d="M 603.10 536.19 L 604.53 542.85 L 605.32 549.46 L 605.47 556.03 L 605.00 562.59 L 603.93 569.10 L 602.32 575.49 L 600.14 581.78 L 597.38 588.01 L 594.15 593.97 L 590.44 599.73 L 586.22 605.30 L 581.47 610.70 L 576.38 615.72 L 570.86 620.43 L 564.90 624.84 L 558.47 628.96 L 551.82 632.60 L 544.80 635.83 L 537.40 638.65 L 529.58 641.04 L 521.62 642.88 L 513.80 644.14 L 506.11 644.85 L 498.53 645.03 L 490.90 644.68 L 483.53 643.84 L 476.40 642.52 L 469.48 640.73 L 462.67 638.43 L 456.22 635.71 L 450.12 632.58 L 444.35 629.04 L 438.85 625.03 L 433.81 620.67 L 429.21 615.94 L 425.04 610.84 L 421.34 605.39 L 418.19 599.63 L 415.57 593.52 L 413.47 587.03 L 412.04 580.37 L 411.26 573.76 L 411.10 567.19 L 411.58 560.63 L 412.64 554.12 L 414.26 547.73 L 416.43 541.44 L 419.19 535.21 L 422.42 529.25 L 426.13 523.49 L 430.35 517.92 L 435.10 512.52 L 440.19 507.50 L 445.71 502.79 L 451.67 498.38 L 458.11 494.26 L 464.76 490.62 L 471.77 487.39 L 479.17 484.57 L 486.99 482.18 L 494.96 480.34 L 502.78 479.08 L 510.46 478.37 L 518.04 478.19 L 525.67 478.54 L 533.04 479.38 L 540.18 480.70 L 547.09 482.49 L 553.91 484.79 L 560.35 487.51 L 566.45 490.64 L 572.23 494.18 L 577.73 498.19 L 582.76 502.56 L 587.36 507.28 L 591.53 512.38 L 595.23 517.83 L 598.38 523.59 L 601.00 529.70 L 603.10 536.19 Z" fill="url(#linear-gradient-8)" fill-rule="nonzero" group-id="1,9,13" id="椭圆形-2" node-id="55" stroke="none" target-height="166.84003" target-width="194.36996" target-x="411.1" target-y="478.19"></path><path d="M 716.41 561.76 L 717.10 565.49 L 717.26 569.31 L 716.88 573.26 L 715.92 577.38 L 714.33 581.72 L 711.85 586.71 L 708.55 591.94 L 704.35 597.44 L 699.12 603.23 L 693.72 608.47 L 687.53 613.87 L 680.46 619.43 L 672.46 625.15 L 664.47 630.39 L 655.76 635.67 L 646.29 640.98 L 636.02 646.33 L 622.28 652.90 L 607.45 659.34 L 591.49 665.63 L 575.35 671.37 L 558.37 676.80 L 540.53 681.89 L 522.53 686.41 L 505.12 690.20 L 488.27 693.30 L 471.30 695.84 L 455.24 697.68 L 440.05 698.87 L 428.48 699.38 L 417.63 699.51 L 407.45 699.30 L 397.91 698.76 L 388.11 697.81 L 379.22 696.53 L 371.15 694.96 L 363.85 693.12 L 356.43 690.72 L 350.04 688.06 L 344.57 685.18 L 339.92 682.10 L 336.38 679.14 L 333.49 676.05 L 331.18 672.83 L 329.40 669.44 L 328.14 665.86 L 327.44 662.13 L 327.29 658.31 L 327.67 654.36 L 328.63 650.24 L 330.22 645.90 L 332.70 640.91 L 336.00 635.68 L 340.20 630.18 L 345.43 624.39 L 350.83 619.15 L 357.02 613.75 L 364.09 608.19 L 372.09 602.47 L 380.08 597.23 L 388.79 591.95 L 398.26 586.64 L 408.53 581.29 L 422.27 574.72 L 437.10 568.28 L 453.06 561.99 L 469.20 556.25 L 486.18 550.82 L 504.02 545.73 L 522.02 541.21 L 539.43 537.42 L 556.28 534.32 L 573.25 531.78 L 589.31 529.94 L 604.50 528.75 L 616.07 528.24 L 626.92 528.11 L 637.10 528.32 L 646.64 528.86 L 656.44 529.81 L 665.33 531.09 L 673.40 532.66 L 680.69 534.50 L 688.12 536.90 L 694.51 539.56 L 699.98 542.44 L 704.63 545.52 L 708.17 548.48 L 711.06 551.57 L 713.37 554.79 L 715.15 558.18 L 716.41 561.76 Z" fill="url(#linear-gradient-9)" fill-rule="nonzero" group-id="1,9,14" id="椭圆形-3" node-id="56" stroke="none" target-height="171.40002" target-width="389.97" target-x="327.29" target-y="528.11"></path><path d="M 684.33 590.97 L 683.17 591.25 L 679.77 591.70 L 676.74 591.63 L 673.93 591.05 L 671.78 590.09 L 670.60 589.18 L 669.81 588.15 L 669.35 586.98 L 669.28 585.79 L 669.53 584.60 L 670.13 583.37 L 671.50 581.70 L 673.58 580.09 L 676.04 578.79 L 679.07 577.74 L 680.23 577.46 L 683.30 577.01 L 686.33 577.06 L 689.38 577.62 L 691.32 578.44 L 692.66 579.40 L 693.54 580.49 L 694.04 581.73 L 694.11 582.92 L 693.86 584.11 L 693.26 585.34 L 691.89 587.00 L 689.82 588.62 L 687.35 589.92 L 684.33 590.97 Z M 383.34 666.46 L 380.46 667.01 L 377.99 667.11 L 375.84 666.82 L 373.84 666.11 L 372.47 665.10 L 371.60 663.78 L 371.32 662.56 L 371.40 661.26 L 371.87 659.84 L 373.11 657.84 L 375.12 655.79 L 377.59 654.04 L 380.66 652.51 L 383.26 651.64 L 386.13 651.09 L 388.60 650.99 L 390.75 651.27 L 392.75 651.99 L 394.12 653.00 L 395.00 654.31 L 395.27 655.54 L 395.20 656.83 L 394.73 658.25 L 393.48 660.25 L 391.47 662.30 L 389.00 664.06 L 385.93 665.59 L 383.34 666.46 Z M 586.67 586.85 L 584.72 587.32 L 580.87 587.93 L 577.31 588.13 L 574.01 587.96 L 570.75 587.40 L 568.02 586.53 L 565.75 585.40 L 563.77 583.87 L 562.46 582.15 L 561.70 580.20 L 561.57 578.23 L 561.99 576.24 L 562.99 574.19 L 564.40 572.33 L 566.28 570.51 L 568.73 568.73 L 571.37 567.24 L 574.40 565.93 L 577.87 564.81 L 579.82 564.34 L 583.63 563.70 L 587.47 563.53 L 591.30 563.83 L 595.09 564.62 L 597.22 565.42 L 598.95 566.35 L 600.35 567.39 L 601.53 568.65 L 602.35 570.00 L 602.84 571.46 L 602.96 573.44 L 602.55 575.42 L 601.55 577.48 L 600.14 579.33 L 598.25 581.15 L 595.81 582.94 L 593.17 584.43 L 590.13 585.74 L 586.67 586.85 Z M 465.37 614.51 L 461.81 615.28 L 458.53 615.66 L 455.50 615.69 L 452.49 615.37 L 449.95 614.74 L 447.80 613.83 L 445.90 612.55 L 444.55 611.04 L 443.66 609.27 L 443.34 607.20 L 443.62 605.06 L 444.57 602.75 L 445.97 600.63 L 447.90 598.52 L 450.44 596.40 L 453.22 594.60 L 456.40 592.99 L 460.03 591.59 L 461.95 591.02 L 465.51 590.26 L 468.79 589.87 L 471.82 589.84 L 474.84 590.16 L 477.38 590.79 L 479.53 591.70 L 481.43 592.98 L 482.79 594.49 L 483.67 596.26 L 483.99 598.33 L 483.71 600.48 L 482.76 602.78 L 481.36 604.90 L 479.43 607.01 L 476.89 609.13 L 474.11 610.93 L 470.93 612.54 L 467.30 613.94 L 465.37 614.51 Z" fill="url(#linear-gradient-10)" fill-rule="nonzero" group-id="1,9,15" id="形状结合-3" node-id="57" stroke="none" target-height="103.579956" target-width="322.78998" target-x="371.32" target-y="563.53"></path><path d="M 631.29 606.48 L 631.49 608.46 L 631.11 610.61 L 630.05 613.02 L 628.13 615.78 L 625.12 618.99 L 620.92 622.57 L 615.27 626.57 L 609.40 630.18 L 602.46 633.98 L 594.30 637.99 L 586.04 641.67 L 576.90 645.40 L 566.83 649.15 L 556.68 652.61 L 545.90 655.96 L 534.44 659.20 L 522.91 662.13 L 511.89 664.62 L 501.38 666.70 L 490.77 668.49 L 481.00 669.84 L 472.00 670.78 L 462.94 671.39 L 455.02 671.57 L 448.14 671.38 L 441.24 670.74 L 435.81 669.74 L 431.60 668.47 L 428.56 667.04 L 426.43 665.49 L 425.03 663.81 L 424.21 662.00 L 424.01 660.01 L 424.39 657.86 L 425.45 655.45 L 427.37 652.69 L 430.38 649.48 L 434.58 645.90 L 440.23 641.90 L 446.10 638.29 L 453.05 634.49 L 461.20 630.48 L 469.46 626.80 L 478.60 623.07 L 488.67 619.32 L 498.82 615.86 L 509.61 612.51 L 521.06 609.27 L 532.59 606.34 L 543.61 603.85 L 554.13 601.77 L 564.73 599.98 L 574.50 598.63 L 583.50 597.69 L 592.56 597.08 L 600.48 596.90 L 607.36 597.09 L 614.26 597.73 L 619.69 598.73 L 623.90 600.00 L 626.94 601.43 L 629.07 602.98 L 630.47 604.66 L 631.29 606.48 Z" fill="#ffffff" fill-rule="nonzero" group-id="1,9,16" id="椭圆形复制-6" node-id="58" stroke="none" target-height="74.66998" target-width="207.47998" target-x="424.01" target-y="596.9"></path><path d="M 457.15 641.74 L 387.53 847.95 L 410.56 847.75 L 433.49 846.93 L 456.33 845.48 L 479.09 843.40 L 501.77 840.70 L 524.39 837.37 L 546.96 833.41 L 569.48 828.81 L 591.95 823.59 L 614.40 817.72 L 636.82 811.20 L 659.22 804.03 L 681.61 796.20 L 704.00 787.70 L 726.39 778.52 L 748.79 768.65 L 746.79 766.36 L 717.39 735.47 L 591.97 605.45 L 522.79 624.07 Z" fill="url(#linear-gradient-11)" fill-rule="nonzero" group-id="1,9,17" id="路径-2-2" node-id="59" stroke="none" target-height="242.5" target-width="361.25998" target-x="387.53" target-y="605.45"></path><path d="M 500.28 690.79 L 483.57 740.62 L 491.71 740.10 L 490.60 723.74 L 515.90 722.13 L 517.01 738.49 L 526.59 737.89 L 527.99 757.90 L 518.41 758.51 L 519.51 774.97 L 494.21 776.57 L 493.10 760.11 L 457.27 762.39 L 456.02 744.21 L 474.16 692.44 Z" fill="url(#linear-gradient-12)" fill-rule="nonzero" group-id="1,9,18,19" id="路径-6" node-id="61" stroke="none" target-height="85.78003" target-width="71.97" target-x="456.02" target-y="690.79"></path><path d="M 653.39 739.14 L 628.72 745.75 L 624.39 729.61 L 589.40 738.99 L 584.63 721.19 L 592.46 666.19 L 617.95 659.36 L 611.17 712.15 L 619.13 710.02 L 614.84 694.01 L 639.51 687.40 L 643.80 703.40 L 653.17 700.89 L 658.43 720.49 L 649.06 723.00 L 653.39 739.14 Z M 554.29 724.90 L 550.98 725.60 L 547.65 726.01 L 544.28 726.14 L 539.77 725.91 L 535.68 725.26 L 531.96 724.23 L 528.55 722.82 L 525.44 721.06 L 522.56 718.89 L 519.95 716.37 L 517.61 713.44 L 515.52 710.08 L 513.69 706.24 L 512.00 701.39 L 510.71 695.84 L 509.87 689.53 L 509.53 682.34 L 509.78 674.99 L 510.56 668.56 L 511.81 662.95 L 513.47 658.06 L 515.52 653.80 L 517.75 650.37 L 520.26 647.41 L 523.07 644.90 L 526.20 642.79 L 529.67 641.08 L 533.53 639.77 L 536.88 639.06 L 540.26 638.64 L 543.67 638.51 L 548.16 638.75 L 552.23 639.40 L 555.94 640.43 L 559.33 641.84 L 562.44 643.61 L 565.30 645.77 L 567.90 648.30 L 570.23 651.23 L 572.32 654.58 L 574.14 658.42 L 575.82 663.28 L 577.11 668.82 L 577.94 675.13 L 578.28 682.31 L 578.03 689.60 L 577.25 696.00 L 575.99 701.62 L 574.31 706.56 L 572.22 710.88 L 570.10 714.22 L 567.60 717.17 L 564.72 719.76 L 561.51 721.93 L 558.04 723.64 L 554.29 724.90 Z M 542.09 657.87 L 540.73 658.44 L 539.54 659.45 L 538.50 661.01 L 537.76 662.79 L 537.12 665.31 L 536.60 668.77 L 536.21 674.36 L 536.11 682.33 L 536.37 691.03 L 536.95 696.93 L 537.67 700.53 L 538.54 703.04 L 539.49 704.70 L 540.80 706.01 L 542.33 706.75 L 544.16 706.98 L 545.83 706.78 L 547.16 706.21 L 548.33 705.18 L 549.37 703.60 L 550.10 701.80 L 550.75 699.25 L 551.27 695.78 L 551.66 690.19 L 551.76 682.30 L 551.61 675.50 L 551.28 670.54 L 550.70 666.13 L 549.98 663.15 L 549.27 661.30 L 548.48 659.94 L 547.61 658.96 L 546.55 658.24 L 545.32 657.80 L 543.86 657.65 L 542.09 657.87 Z" fill="url(#linear-gradient-13)" fill-rule="nonzero" group-id="1,9,18,20" id="形状" node-id="62" stroke="none" target-height="107.23999" target-width="148.9" target-x="509.53" target-y="638.51"></path></g></svg>