<svg height="2745" node-id="1" sillyvg="true" template-height="2745" template-width="3234" version="1.1" viewBox="0 0 3234 2745" width="3234" xmlns="http://www.w3.org/2000/svg" xmlns:xlink="http://www.w3.org/1999/xlink"><defs node-id="69"><linearGradient gradientUnits="userSpaceOnUse" id="paint0_linear_7_589" node-id="17" spreadMethod="pad" x1="2369.24" x2="2369.24" y1="548.782" y2="273.018"><stop offset="0" stop-color="#ffffff" stop-opacity="0.1"></stop><stop offset="0.14" stop-color="#f8fbff" stop-opacity="0.27"></stop><stop offset="0.37" stop-color="#edf5ff" stop-opacity="0.52"></stop><stop offset="0.58" stop-color="#e4f0ff" stop-opacity="0.73"></stop><stop offset="0.76" stop-color="#deecff" stop-opacity="0.88"></stop><stop offset="0.91" stop-color="#daeaff" stop-opacity="0.97"></stop><stop offset="1" stop-color="#d9e9ff"></stop></linearGradient><linearGradient gradientUnits="userSpaceOnUse" id="paint1_linear_7_589" node-id="25" spreadMethod="pad" x1="106.216" x2="536.994" y1="1141.66" y2="578.219"><stop offset="0" stop-color="#ffffff" stop-opacity="0.1"></stop><stop offset="0.09" stop-color="#fefeff" stop-opacity="0.13"></stop><stop offset="0.23" stop-color="#fbfcff" stop-opacity="0.21"></stop><stop offset="0.4" stop-color="#f5f9ff" stop-opacity="0.33"></stop><stop offset="0.59" stop-color="#eef5ff" stop-opacity="0.51"></stop><stop offset="0.79" stop-color="#e4efff" stop-opacity="0.74"></stop><stop offset="1" stop-color="#d9e9ff"></stop></linearGradient><linearGradient gradientUnits="userSpaceOnUse" id="paint2_linear_7_589" node-id="33" spreadMethod="pad" x1="2456.5" x2="2929" y1="706" y2="88"><stop offset="0" stop-color="#ffffff" stop-opacity="0.1"></stop><stop offset="0.09" stop-color="#fefeff" stop-opacity="0.13"></stop><stop offset="0.23" stop-color="#fbfcff" stop-opacity="0.21"></stop><stop offset="0.4" stop-color="#f5f9ff" stop-opacity="0.33"></stop><stop offset="0.59" stop-color="#eef5ff" stop-opacity="0.51"></stop><stop offset="0.79" stop-color="#e4efff" stop-opacity="0.74"></stop><stop offset="1" stop-color="#d9e9ff"></stop></linearGradient><linearGradient gradientUnits="userSpaceOnUse" id="paint3_linear_7_589" node-id="41" spreadMethod="pad" x1="1692.27" x2="1737.27" y1="2774.5" y2="1516.5"><stop offset="0.2597" stop-color="#ffffff"></stop><stop offset="1" stop-color="#6397f7"></stop></linearGradient><linearGradient gradientUnits="userSpaceOnUse" id="paint4_linear_7_589" node-id="44" spreadMethod="pad" x1="2791.93" x2="2635.5" y1="2034.05" y2="2036.51"><stop offset="0" stop-color="#f3f8ff"></stop><stop offset="1" stop-color="#e4efff"></stop></linearGradient><linearGradient gradientUnits="userSpaceOnUse" id="paint5_linear_7_589" node-id="47" spreadMethod="pad" x1="3079.86" x2="2923.43" y1="2178.02" y2="2180.48"><stop offset="0" stop-color="#f3f8ff"></stop><stop offset="1" stop-color="#e4efff"></stop></linearGradient><linearGradient gradientUnits="userSpaceOnUse" id="paint6_linear_7_589" node-id="50" spreadMethod="pad" x1="529.695" x2="309.949" y1="2218.96" y2="2222.38"><stop offset="0" stop-color="#f3f8ff"></stop><stop offset="1" stop-color="#e4efff"></stop></linearGradient><linearGradient gradientUnits="userSpaceOnUse" id="paint7_linear_7_589" node-id="53" spreadMethod="pad" x1="995.5" x2="1589" y1="1496" y2="2699"><stop offset="0" stop-color="#5a91f7" stop-opacity="0.21"></stop><stop offset="0.9749" stop-color="#ffffff" stop-opacity="0.54"></stop></linearGradient><linearGradient gradientUnits="userSpaceOnUse" id="paint8_linear_7_589" node-id="56" spreadMethod="pad" x1="2127.5" x2="1530" y1="1923" y2="613.5"><stop offset="0" stop-color="#5792f0"></stop><stop offset="0.9205" stop-color="#d9e9ff"></stop></linearGradient><linearGradient gradientUnits="userSpaceOnUse" id="paint9_linear_7_589" node-id="59" spreadMethod="pad" x1="1692.5" x2="1342" y1="2201.5" y2="1115"><stop offset="0" stop-color="#5792f0"></stop><stop offset="1" stop-color="#e4efff"></stop></linearGradient><linearGradient gradientUnits="userSpaceOnUse" id="paint10_linear_7_589" node-id="62" spreadMethod="pad" x1="1362" x2="1705.5" y1="1018.5" y2="1487.5"><stop offset="0.0884" stop-color="#f3f8ff"></stop><stop offset="1" stop-color="#5792f0"></stop></linearGradient><linearGradient gradientUnits="userSpaceOnUse" id="paint11_linear_7_589" node-id="65" spreadMethod="pad" x1="1566" x2="1566" y1="1464" y2="2193"><stop offset="0.0884" stop-color="#e4efff"></stop><stop offset="1" stop-color="#5792f0"></stop></linearGradient></defs><path d="M 2557.74 377.73 C 2537.69 346.24 2503.74 326.72 2466.81 325.38 C 2445.31 292.10 2408.45 272.35 2369.21 273.02 C 2337.80 272.72 2307.54 285.24 2285.29 307.82 C 2275.12 304.54 2264.50 302.83 2253.84 302.83 C 2204.42 302.83 2163.62 337.49 2159.41 381.35 C 2121.73 390.44 2094.60 423.79 2093.00 463.03 C 2093.00 510.29 2135.71 548.78 2187.43 548.78 L 2550.10 548.78 C 2602.57 548.78 2644.53 510.29 2644.53 463.03 C 2645.35 418.13 2606.56 381.24 2557.74 377.73 Z" fill="url(#paint0_linear_7_589)" fill-rule="nonzero" node-id="174" stroke="none" target-height="276.43002" target-width="552.3501" target-x="2093" target-y="272.35"></path><path d="M 651.91 720.00 L 590.69 720.00 C 590.69 597.36 491.28 498.00 368.75 498.00 C 246.14 498.00 146.81 597.36 146.81 720.00 L 102.09 720.00 C 45.64 720.00 0.00 769.68 0.00 831.00 C 0.00 892.32 45.73 942.00 102.09 942.00 L 651.91 942.00 C 708.27 942.00 754.00 892.32 754.00 831.00 C 754.00 769.68 708.27 720.00 651.91 720.00 Z" fill="url(#paint1_linear_7_589)" fill-rule="nonzero" node-id="176" stroke="none" target-height="444" target-width="754" target-x="0" target-y="498"></path><path d="M 3055.02 243.50 L 2987.89 243.50 C 2987.89 108.93 2878.86 0.00 2744.47 0.00 C 2610.07 0.00 2501.04 108.93 2501.04 243.50 L 2451.97 243.50 C 2390.09 243.50 2340.00 297.97 2340.00 365.25 C 2340.00 432.40 2390.09 487.00 2451.97 487.00 L 3055.02 487.00 C 3116.91 487.00 3167.00 432.40 3167.00 365.25 C 3167.00 297.97 3116.91 243.50 3055.02 243.50 Z" fill="url(#paint2_linear_7_589)" fill-rule="nonzero" node-id="178" stroke="none" target-height="487" target-width="827" target-x="2340" target-y="0"></path><path d="M 1522.45 1917.04 C 1964.28 1917.04 2362.13 1953.10 2640.28 2010.61 C 2912.30 2012.49 3131.28 2093.90 3131.28 2194.17 C 3131.28 2273.64 2993.71 2341.31 2801.23 2366.86 C 2755.31 2380.39 2703.55 2393.21 2646.76 2405.16 C 2648.27 2412.71 2648.99 2420.42 2648.99 2428.12 C 2648.99 2603.04 2268.70 2744.84 1799.58 2744.84 C 1377.55 2744.84 1027.35 2630.03 961.34 2479.66 C 398.21 2436.90 0.00 2331.66 0.00 2208.57 C 0.00 2047.54 681.61 1917.04 1522.45 1917.04 Z" fill="url(#paint3_linear_7_589)" fill-opacity="0.68" fill-rule="evenodd" node-id="180" stroke="none" target-height="827.80005" target-width="3131.28" target-x="0" target-y="1917.04"></path><path d="M 2809.58 1813.16 L 2811.81 1820.72 L 2813.69 1827.85 L 2814.55 1833.61 L 2812.82 1845.41 L 2807.78 1855.63 L 2800.01 1863.91 L 2790.22 1869.60 L 2781.72 1870.03 L 2773.59 1870.46 L 2765.02 1870.46 L 2694.91 1871.40 L 2694.91 1945.61 L 2695.56 1978.73 L 2697.14 2008.74 L 2699.38 2039.41 L 2634.59 2039.41 L 2635.96 2022.06 L 2636.82 1994.27 L 2637.33 1947.41 L 2637.33 1879.39 L 2629.12 1884.43 L 2620.19 1886.08 L 2612.92 1885.15 L 2606.95 1882.48 L 2601.84 1878.31 L 2597.73 1872.69 L 2546.84 1870.03 L 2533.24 1864.56 L 2522.15 1855.13 L 2516.61 1847.14 L 2513.37 1838.29 L 2512.22 1828.28 L 2512.65 1823.39 L 2514.02 1818.92 L 2525.25 1793.15 L 2527.12 1783.65 L 2530.86 1774.94 L 2536.26 1767.02 L 2542.81 1760.26 L 2613.43 1630.90 L 2613.86 1630.90 L 2623.36 1616.29 L 2634.16 1604.20 L 2642.51 1598.15 L 2652.44 1594.41 L 2664.25 1593.11 L 2679.72 1595.27 L 2693.33 1601.53 L 2704.49 1611.32 L 2712.40 1623.78 L 2769.13 1733.55 L 2778.70 1738.01 L 2787.05 1744.20 L 2794.32 1752.27 L 2799.79 1761.55 L 2803.10 1771.70 L 2804.18 1782.93 L 2801.95 1798.05 L 2809.58 1813.16 Z" fill="url(#paint4_linear_7_589)" fill-rule="nonzero" node-id="182" stroke="none" target-height="446.30005" target-width="302.33008" target-x="2512.22" target-y="1593.11"></path><path d="M 3097.52 1957.13 L 3099.75 1964.69 L 3101.62 1971.82 L 3102.48 1977.57 L 3100.75 1989.38 L 3095.72 1999.60 L 3087.94 2007.88 L 3078.15 2013.57 L 3069.66 2014.00 L 3061.52 2014.43 L 3052.96 2014.43 L 2982.85 2015.37 L 2982.85 2089.58 L 2983.49 2122.69 L 2985.08 2152.71 L 2987.31 2183.37 L 2922.52 2183.37 L 2923.89 2166.03 L 2924.76 2138.24 L 2925.26 2091.38 L 2925.26 2023.36 L 2917.05 2028.39 L 2908.13 2030.05 L 2900.86 2029.11 L 2894.88 2026.45 L 2889.77 2022.28 L 2885.67 2016.66 L 2834.78 2014.00 L 2821.17 2008.53 L 2810.09 1999.10 L 2804.54 1991.11 L 2801.30 1982.25 L 2800.15 1972.25 L 2800.58 1967.35 L 2801.95 1962.89 L 2813.18 1937.12 L 2815.05 1927.62 L 2818.80 1918.91 L 2824.19 1910.99 L 2830.75 1904.22 L 2901.36 1774.87 L 2901.79 1774.87 L 2911.29 1760.26 L 2922.09 1748.16 L 2930.44 1742.12 L 2940.38 1738.37 L 2952.18 1737.08 L 2967.66 1739.24 L 2981.26 1745.50 L 2992.42 1755.29 L 3000.34 1767.74 L 3057.06 1877.52 L 3066.63 1881.98 L 3074.98 1888.17 L 3082.26 1896.23 L 3087.73 1905.52 L 3091.04 1915.67 L 3092.12 1926.90 L 3089.89 1942.01 L 3097.52 1957.13 Z" fill="url(#paint5_linear_7_589)" fill-rule="nonzero" node-id="184" stroke="none" target-height="446.29016" target-width="302.33008" target-x="2800.15" target-y="1737.08"></path><path d="M 554.49 1905.45 L 557.65 1916.17 L 560.17 1926.25 L 561.47 1934.46 L 560.39 1945.90 L 557.22 1956.27 L 551.97 1965.70 L 541.10 1977.43 L 527.35 1985.56 L 515.33 1986.21 L 503.96 1986.79 L 491.93 1986.79 L 393.39 1988.08 L 393.39 2093.47 L 394.32 2140.47 L 396.48 2183.01 L 399.65 2226.56 L 308.67 2226.56 L 310.54 2201.95 L 311.83 2162.50 L 312.48 2095.99 L 312.48 1999.46 L 304.85 2004.78 L 296.93 2007.88 L 288.44 2008.89 L 278.29 2007.59 L 269.79 2003.85 L 262.67 1997.95 L 256.84 1989.96 L 185.43 1986.21 L 172.26 1981.53 L 160.74 1974.55 L 150.66 1965.05 L 142.96 1953.68 L 138.35 1941.08 L 136.77 1926.90 L 137.42 1919.92 L 139.29 1913.65 L 155.12 1877.01 L 157.72 1863.62 L 162.97 1851.17 L 170.53 1839.94 L 179.74 1830.37 L 278.94 1646.74 L 279.58 1646.74 L 292.90 1626.01 L 308.02 1608.88 L 319.82 1600.24 L 333.71 1594.98 L 350.42 1593.11 L 365.17 1594.48 L 378.70 1598.44 L 391.16 1605.13 L 402.17 1613.99 L 411.10 1624.42 L 418.01 1636.66 L 497.62 1792.51 L 511.08 1798.77 L 522.82 1807.55 L 533.04 1819.00 L 540.74 1832.17 L 545.35 1846.56 L 546.93 1862.54 L 546.21 1872.69 L 543.76 1884.00 L 554.49 1905.45 Z" fill="url(#paint6_linear_7_589)" fill-rule="nonzero" node-id="186" stroke="none" target-height="633.4501" target-width="424.69995" target-x="136.77" target-y="1593.11"></path><path d="M 910.00 2105.00 L 1576.50 2699.00 L 3233.50 2279.00 L 2144.80 2057.00 L 910.00 2105.00 Z" fill="url(#paint7_linear_7_589)" fill-opacity="0.68" fill-rule="nonzero" node-id="188" stroke="none" target-height="642" target-width="2323.5" target-x="910" target-y="2057"></path><path d="M 2192.68 1148.30 L 1644.36 674.89 C 1599.77 636.40 1533.72 636.36 1489.10 674.81 L 939.48 1148.30 C 904.29 1178.64 884.04 1222.78 884.04 1269.22 L 884.04 1430.57 L 2248.00 1430.57 L 2248.00 1269.14 C 2247.96 1222.74 2227.79 1178.64 2192.68 1148.30 Z" fill="url(#paint8_linear_7_589)" fill-rule="nonzero" node-id="190" stroke="none" target-height="794.20996" target-width="1363.96" target-x="884.04" target-y="636.36"></path><path d="M 2122.72 1870.72 L 1009.28 1870.72 L 1009.28 890.43 C 1009.28 859.61 1034.30 834.59 1065.12 834.59 L 2066.88 834.59 C 2097.70 834.59 2122.72 859.61 2122.72 890.43 L 2122.72 1870.72 Z" fill="#ebf4ff" fill-rule="nonzero" node-id="192" stroke="none" target-height="1036.1299" target-width="1113.44" target-x="1009.28" target-y="834.59"></path><path d="M 2168.35 1192.44 L 1566.00 1764.85 L 963.65 1192.44 C 919.67 1192.44 884.00 1228.10 884.00 1272.08 L 884.00 2049.95 C 884.00 2093.93 919.67 2129.60 963.65 2129.60 L 2168.35 2129.60 C 2212.33 2129.60 2248.00 2093.93 2248.00 2049.95 L 2248.00 1272.08 C 2247.96 1228.10 2212.33 1192.44 2168.35 1192.44 Z" fill="url(#paint9_linear_7_589)" fill-rule="nonzero" node-id="194" stroke="none" target-height="937.16016" target-width="1364" target-x="884" target-y="1192.44"></path><path d="M 1571.37 1391.55 C 1677.57 1391.55 1763.66 1305.46 1763.66 1199.25 C 1763.66 1093.05 1677.57 1006.96 1571.37 1006.96 C 1465.16 1006.96 1379.07 1093.05 1379.07 1199.25 C 1379.07 1305.46 1465.16 1391.55 1571.37 1391.55 Z" fill="url(#paint10_linear_7_589)" fill-rule="nonzero" node-id="196" stroke="none" target-height="384.59003" target-width="384.5901" target-x="1379.07" target-y="1006.96"></path><path d="M 1607.40 1207.36 L 1665.46 1149.30 C 1675.62 1139.14 1675.62 1122.71 1665.46 1112.55 C 1655.29 1102.38 1638.87 1102.38 1628.70 1112.55 L 1570.64 1170.61 L 1512.58 1112.55 C 1502.41 1102.38 1485.99 1102.38 1475.82 1112.55 C 1465.65 1122.71 1465.65 1139.14 1475.82 1149.30 L 1533.88 1207.36 L 1475.82 1265.43 C 1465.65 1275.59 1465.65 1292.01 1475.82 1302.18 C 1485.99 1312.35 1502.41 1312.35 1512.58 1302.18 L 1570.64 1244.12 L 1628.70 1302.18 C 1638.87 1312.35 1655.29 1312.35 1665.46 1302.18 C 1675.62 1292.01 1675.62 1275.55 1665.46 1265.43 L 1607.40 1207.36 Z" fill="#ffffff" fill-rule="nonzero" node-id="198" stroke="none" target-height="209.96997" target-width="209.96997" target-x="1465.65" target-y="1102.38"></path><path d="M 1558.00 1559.50 L 884.20 2053.42 C 886.02 2095.78 920.84 2129.60 963.69 2129.60 L 2168.35 2129.60 C 2211.16 2129.60 2245.98 2095.78 2247.84 2053.42 L 1558.00 1559.50 Z" fill="url(#paint11_linear_7_589)" fill-rule="nonzero" node-id="200" stroke="none" target-height="570.1001" target-width="1363.6401" target-x="884.2" target-y="1559.5"></path></svg>